<svg width="76" height="16" viewBox="0 0 76 16" fill="none" xmlns="http://www.w3.org/2000/svg">
<path d="M4.07238 13.156C3.44038 13.156 2.87238 13.036 2.36838 12.796C1.86438 12.548 1.44038 12.232 1.09638 11.848L1.54038 11.344C1.86038 11.696 2.24038 11.98 2.68038 12.196C3.12038 12.404 3.58438 12.508 4.07238 12.508C4.72038 12.508 5.23238 12.352 5.60838 12.04C5.98438 11.728 6.17238 11.324 6.17238 10.828C6.17238 10.476 6.10038 10.196 5.95638 9.988C5.82038 9.772 5.63638 9.596 5.40438 9.46C5.17238 9.316 4.91238 9.184 4.62438 9.064L3.31638 8.476C3.06038 8.364 2.79238 8.22 2.51238 8.044C2.24038 7.868 2.00838 7.64 1.81638 7.36C1.63238 7.072 1.54038 6.716 1.54038 6.292C1.54038 5.852 1.65238 5.472 1.87638 5.152C2.10038 4.824 2.40838 4.568 2.80038 4.384C3.19238 4.192 3.63638 4.096 4.13238 4.096C4.66038 4.096 5.13238 4.2 5.54838 4.408C5.97238 4.608 6.32038 4.856 6.59238 5.152L6.19638 5.62C5.94038 5.356 5.64038 5.144 5.29638 4.984C4.95238 4.824 4.56438 4.744 4.13238 4.744C3.57238 4.744 3.12038 4.88 2.77638 5.152C2.44038 5.416 2.27238 5.776 2.27238 6.232C2.27238 6.56 2.35238 6.828 2.51238 7.036C2.67238 7.244 2.86838 7.412 3.10038 7.54C3.33238 7.668 3.55638 7.78 3.77238 7.876L5.06838 8.452C5.40438 8.596 5.70838 8.764 5.98038 8.956C6.26038 9.148 6.48438 9.388 6.65237 9.676C6.82038 9.964 6.90438 10.332 6.90438 10.78C6.90438 11.228 6.78838 11.632 6.55638 11.992C6.32438 12.352 5.99638 12.636 5.57238 12.844C5.14838 13.052 4.64838 13.156 4.07238 13.156ZM14.2613 13.156C13.7253 13.156 13.2293 13.052 12.7733 12.844C12.3253 12.636 11.9333 12.332 11.5973 11.932C11.2693 11.532 11.0133 11.056 10.8293 10.504C10.6533 9.944 10.5653 9.316 10.5653 8.62C10.5653 7.916 10.6573 7.288 10.8413 6.736C11.0253 6.176 11.2853 5.7 11.6213 5.308C11.9573 4.916 12.3533 4.616 12.8093 4.408C13.2733 4.2 13.7813 4.096 14.3333 4.096C14.8533 4.096 15.3053 4.204 15.6893 4.42C16.0813 4.636 16.3973 4.88 16.6373 5.152L16.2293 5.62C15.9973 5.356 15.7213 5.144 15.4013 4.984C15.0893 4.824 14.7373 4.744 14.3453 4.744C13.7213 4.744 13.1813 4.9 12.7253 5.212C12.2773 5.524 11.9293 5.972 11.6813 6.556C11.4333 7.132 11.3093 7.816 11.3093 8.608C11.3093 9.4 11.4293 10.088 11.6693 10.672C11.9173 11.256 12.2653 11.708 12.7133 12.028C13.1613 12.348 13.6893 12.508 14.2973 12.508C14.7373 12.508 15.1293 12.42 15.4733 12.244C15.8253 12.06 16.1573 11.796 16.4693 11.452L16.8773 11.908C16.5413 12.3 16.1653 12.608 15.7493 12.832C15.3333 13.048 14.8373 13.156 14.2613 13.156ZM21.0407 13V4.252H23.5967C24.1807 4.252 24.6887 4.332 25.1207 4.492C25.5607 4.644 25.9007 4.892 26.1407 5.236C26.3887 5.572 26.5127 6.024 26.5127 6.592C26.5127 7.128 26.3887 7.58 26.1407 7.948C25.9007 8.316 25.5607 8.592 25.1207 8.776C24.6887 8.96 24.1807 9.052 23.5967 9.052H21.7607V13H21.0407ZM21.7607 8.452H23.4407C24.1927 8.452 24.7687 8.3 25.1687 7.996C25.5687 7.692 25.7687 7.224 25.7687 6.592C25.7687 5.952 25.5687 5.504 25.1687 5.248C24.7687 4.984 24.1927 4.852 23.4407 4.852H21.7607V8.452ZM25.8767 13L23.4287 8.848L24.0887 8.584L26.6927 13H25.8767ZM33.8255 13.156C33.1135 13.156 32.4855 12.968 31.9415 12.592C31.3975 12.216 30.9695 11.688 30.6575 11.008C30.3455 10.328 30.1895 9.524 30.1895 8.596C30.1895 7.668 30.3455 6.868 30.6575 6.196C30.9695 5.524 31.3975 5.008 31.9415 4.648C32.4855 4.28 33.1135 4.096 33.8255 4.096C34.5295 4.096 35.1535 4.28 35.6975 4.648C36.2495 5.016 36.6775 5.536 36.9815 6.208C37.2935 6.872 37.4495 7.668 37.4495 8.596C37.4495 9.524 37.2935 10.328 36.9815 11.008C36.6775 11.688 36.2495 12.216 35.6975 12.592C35.1535 12.968 34.5295 13.156 33.8255 13.156ZM33.8255 12.508C34.4015 12.508 34.9055 12.348 35.3375 12.028C35.7695 11.7 36.1055 11.244 36.3455 10.66C36.5855 10.076 36.7055 9.388 36.7055 8.596C36.7055 7.804 36.5855 7.12 36.3455 6.544C36.1055 5.968 35.7695 5.524 35.3375 5.212C34.9055 4.9 34.4015 4.744 33.8255 4.744C33.2495 4.744 32.7415 4.9 32.3015 5.212C31.8695 5.524 31.5335 5.968 31.2935 6.544C31.0535 7.12 30.9335 7.804 30.9335 8.596C30.9335 9.388 31.0535 10.076 31.2935 10.66C31.5335 11.244 31.8695 11.7 32.3015 12.028C32.7415 12.348 33.2495 12.508 33.8255 12.508ZM41.8486 13V4.252H42.5686V12.376H46.5526V13H41.8486ZM50.5181 13V4.252H51.2381V12.376H55.2221V13H50.5181Z" fill="#4D403E"/>
<rect x="66.25" y="0.75" width="9.5" height="14.5" rx="4.75" stroke="#4D403E" stroke-width="0.5"/>
<path d="M71 4.5L71 9.5" stroke="#4D403E" stroke-width="0.5"/>
</svg>
