<svg width="64" height="25" viewBox="0 0 64 25" fill="none" xmlns="http://www.w3.org/2000/svg">
<path d="M0 0.285141H2.80975C6.96191 0.285141 10.3961 2.50314 10.3961 7.09758C10.3961 11.7871 7.02437 14.0367 2.74731 14.0367H0V0.285141ZM1.68585 12.4841H2.27902C5.71314 12.4841 8.71024 11.185 8.71024 7.19262C8.71024 3.16854 5.71314 1.86943 2.27902 1.86943H1.68585V12.4841Z" fill="#4D403E"/>
<path d="M14.2358 0.285156H21.5099V1.83776H15.9217V5.7034H21.3538V7.28767H15.9217V12.4841H21.5099V14.0367H14.2358V0.285156Z" fill="#4D403E"/>
<path d="M32.5614 12.6426C31.656 13.4664 30.5945 14.2586 29.3458 14.2586C27.816 14.2586 26.4111 13.0862 26.4111 11.4702C26.4111 9.7592 27.6287 8.93537 28.8775 8.11154L29.0024 8.01645C28.5341 7.38274 28.0033 6.68565 28.0033 5.86186C28.0033 4.56275 28.9399 3.70721 30.2199 3.70721C31.3438 3.70721 32.3428 4.53105 32.3428 5.70343C32.3428 6.90746 31.4375 7.57287 30.5633 8.23827L32.6862 10.9949L33.8101 9.66412L34.6219 10.3295L33.3419 11.8504L35.0589 14.1001H33.6541L32.5614 12.6426ZM29.1897 9.18883C28.4404 9.7275 27.535 10.3295 27.535 11.3752C27.535 12.3257 28.378 13.2129 29.3145 13.2129C30.3136 13.2129 31.2189 12.4208 31.937 11.7871L29.658 8.87198L29.1897 9.18883ZM30.0326 7.35105C30.5945 6.90746 31.2814 6.49557 31.2814 5.70343C31.2814 5.06968 30.7819 4.65779 30.1887 4.65779C29.5643 4.65779 29.096 5.13307 29.096 5.76678C29.096 6.27375 29.4394 6.654 29.7204 7.06589L29.9702 7.41444L30.0326 7.35105Z" fill="#4D403E"/>
<path d="M49.7951 2.91508C48.8274 2.02788 47.4847 1.5526 46.2361 1.5526C43.2077 1.5526 40.8975 4.11914 40.8975 7.16097C40.8975 10.1711 43.2077 12.7377 46.2047 12.7377C47.5474 12.7377 48.7961 12.2307 49.8264 11.3118V13.3397C48.7961 13.9734 47.4534 14.2902 46.2674 14.2902C42.396 14.2902 39.2117 11.185 39.2117 7.19266C39.1804 3.16857 42.396 0 46.3922 0C47.5782 0 48.7961 0.285171 49.7951 0.918884V2.91508Z" fill="#4D403E"/>
<path d="M60.7213 9.7909C60.7213 12.3574 58.7545 14.322 56.2259 14.322C53.6967 14.322 51.73 12.3574 51.73 9.7909C51.73 7.22437 53.6967 5.25986 56.2259 5.25986C58.7545 5.25986 60.7213 7.22437 60.7213 9.7909ZM53.3536 9.7909C53.3536 11.4069 54.6336 12.7694 56.2259 12.7694C57.8177 12.7694 59.0977 11.4069 59.0977 9.7909C59.0977 8.17494 57.8177 6.81248 56.2259 6.81248C54.6336 6.81248 53.3536 8.17494 53.3536 9.7909Z" fill="#4D403E"/>
<path d="M64.0002 13.2764C64.0002 13.8467 63.5317 14.322 62.9698 14.322C62.4079 14.322 61.9395 13.8467 61.9395 13.2764C61.9395 12.706 62.4079 12.2307 62.9698 12.2307C63.5317 12.2307 64.0002 12.706 64.0002 13.2764Z" fill="#4D403E"/>
<path d="M0 19.5183H0.811704C2.02926 19.5183 3.02829 20.1837 3.02829 21.5145C3.02829 22.877 2.02926 23.5424 0.780485 23.5424H0V19.5183ZM0.499512 23.0988H0.686827C1.68585 23.0988 2.55999 22.7186 2.55999 21.5462C2.55999 20.3739 1.68585 19.9936 0.686827 19.9936H0.499512V23.0988Z" fill="#4D403E"/>
<path d="M4.68313 22.4018C4.68313 22.8454 4.9641 23.2256 5.43238 23.2256C5.80703 23.2256 5.99436 23.0355 6.18168 22.7503L6.58751 22.9721C6.36901 23.4157 5.9319 23.6692 5.43238 23.6692C4.68313 23.6692 4.21484 23.0989 4.21484 22.3384C4.21484 21.5779 4.62068 20.9759 5.43238 20.9759C6.21291 20.9759 6.58751 21.5779 6.58751 22.3067V22.3701H4.68313V22.4018ZM6.088 22.0215C6.02559 21.6413 5.7758 21.3878 5.4012 21.3878C5.02655 21.3878 4.74559 21.6413 4.71436 22.0215H6.088Z" fill="#4D403E"/>
<path d="M9.67824 21.768C9.49092 21.5462 9.24118 21.4195 8.96017 21.4195C8.49188 21.4195 8.14851 21.8314 8.14851 22.3067C8.14851 22.8137 8.49188 23.1939 8.9914 23.1939C9.27236 23.1939 9.49092 23.0671 9.67824 22.877V23.479C9.45969 23.6058 9.24118 23.6375 8.9914 23.6375C8.27338 23.6375 7.68018 23.0671 7.68018 22.3067C7.68018 21.5462 8.27338 20.9442 9.02263 20.9442C9.24118 20.9442 9.49092 21.0076 9.67824 21.1026V21.768Z" fill="#4D403E"/>
<path d="M13.4867 22.3067C13.4867 23.0672 12.8935 23.6375 12.1755 23.6375C11.4262 23.6375 10.8643 23.0672 10.8643 22.3067C10.8643 21.5462 11.4574 20.9759 12.1755 20.9759C12.9247 20.9759 13.4867 21.5462 13.4867 22.3067ZM11.3325 22.3067C11.3325 22.782 11.7071 23.1939 12.1755 23.1939C12.6438 23.1939 13.0184 22.782 13.0184 22.3067C13.0184 21.8314 12.6438 21.4195 12.1755 21.4195C11.7071 21.4512 11.3325 21.8314 11.3325 22.3067Z" fill="#4D403E"/>
<path d="M15.3286 23.5742H14.8604V18.9164H15.3286V23.5742Z" fill="#4D403E"/>
<path d="M17.3892 23.5742H16.9209V18.9164H17.3892V23.5742Z" fill="#4D403E"/>
<path d="M19.5125 23.5741H19.0442V21.5146H18.7944V21.071H19.0442V20.1204H19.5125V21.071H19.9807V21.5146H19.5125V23.5741Z" fill="#4D403E"/>
<path d="M21.4165 22.4018C21.4165 22.8454 21.6975 23.2256 22.1658 23.2256C22.5404 23.2256 22.7278 23.0355 22.9151 22.7503L23.3209 22.9721C23.1024 23.4157 22.6653 23.6692 22.1658 23.6692C21.4165 23.6692 20.9482 23.0989 20.9482 22.3384C20.9482 21.5779 21.3541 20.9759 22.1658 20.9759C22.9463 20.9759 23.3209 21.5779 23.3209 22.3067V22.3701H21.4165V22.4018ZM22.8214 22.0215C22.759 21.6413 22.5092 21.3878 22.1346 21.3878C21.76 21.3878 21.479 21.6413 21.4478 22.0215H22.8214Z" fill="#4D403E"/>
<path d="M27.5669 23.5741H27.0674V19.5183H27.6293C28.8469 19.5183 29.2215 19.9619 29.2215 20.6907C29.2215 21.5462 28.5971 21.8631 27.8166 21.8631H27.5357V23.5741H27.5669ZM27.5669 21.4194H27.723C28.2225 21.4194 28.7844 21.3244 28.7844 20.6907C28.7844 20.057 28.1913 19.9936 27.6918 19.9936H27.5669V21.4194Z" fill="#4D403E"/>
<path d="M31.001 18.9164V21.3878C31.1571 21.1344 31.4381 20.9759 31.7503 20.9759C32.4371 20.9759 32.6244 21.4512 32.6244 22.0532V23.5425H32.1561V22.1166C32.1561 21.673 32.0937 21.3878 31.6254 21.3878C31.001 21.3878 31.001 21.9265 31.001 22.4018V23.5425H30.5327V18.9164H31.001Z" fill="#4D403E"/>
<path d="M36.5892 22.3067C36.5892 23.0672 35.9961 23.6375 35.278 23.6375C34.5288 23.6375 33.9668 23.0672 33.9668 22.3067C33.9668 21.5462 34.56 20.9759 35.278 20.9759C36.0273 20.9759 36.5892 21.5462 36.5892 22.3067ZM34.4351 22.3067C34.4351 22.782 34.8097 23.1939 35.278 23.1939C35.7463 23.1939 36.121 22.782 36.121 22.3067C36.121 21.8314 35.7463 21.4195 35.278 21.4195C34.8097 21.4512 34.4351 21.8314 34.4351 22.3067Z" fill="#4D403E"/>
<path d="M38.4622 23.5741H37.9939V21.5146H37.7441V21.071H37.9939V20.1204H38.4622V21.071H38.9305V21.5146H38.4622V23.5741Z" fill="#4D403E"/>
<path d="M42.5208 22.3067C42.5208 23.0672 41.9277 23.6375 41.2097 23.6375C40.4604 23.6375 39.8984 23.0672 39.8984 22.3067C39.8984 21.5462 40.4916 20.9759 41.2097 20.9759C41.9277 20.9759 42.5208 21.5462 42.5208 22.3067ZM40.3355 22.3067C40.3355 22.782 40.7101 23.1939 41.1784 23.1939C41.6467 23.1939 42.0214 22.782 42.0214 22.3067C42.0214 21.8314 41.6467 21.4195 41.1784 21.4195C40.7101 21.4512 40.3355 21.8314 40.3355 22.3067Z" fill="#4D403E"/>
<path d="M46.1422 23.5108C46.1422 24.3663 45.8922 25 44.9245 25C44.2377 25 43.7382 24.5564 43.7382 23.8593H44.2065C44.2065 24.3029 44.5187 24.5564 44.9557 24.5564C45.549 24.5564 45.6738 24.1445 45.6738 23.6375V23.1622C45.4864 23.4474 45.1743 23.6375 44.8308 23.6375C44.0816 23.6375 43.6445 23.0038 43.6445 22.275C43.6445 21.5779 44.0816 20.9759 44.7996 20.9759C45.1743 20.9759 45.455 21.166 45.6738 21.4829V21.0393H46.1422V23.5108ZM45.7051 22.3067C45.7051 21.8314 45.4242 21.4195 44.8933 21.4195C44.3938 21.4195 44.1128 21.8631 44.1128 22.3067C44.1128 22.782 44.3938 23.2256 44.8933 23.2256C45.4242 23.2256 45.7051 22.8137 45.7051 22.3067Z" fill="#4D403E"/>
<path d="M48.1716 21.4512C48.2964 21.166 48.5465 20.9759 48.8583 20.9759C48.9836 20.9759 49.1393 21.0393 49.2646 21.1027L49.0458 21.5462C48.9523 21.4829 48.8583 21.4512 48.7648 21.4512C48.2655 21.4512 48.2029 21.9265 48.2029 22.3384V23.5741H47.7036V21.071H48.1716V21.4512Z" fill="#4D403E"/>
<path d="M52.7298 23.5742H52.2618V23.194C52.0743 23.4791 51.7621 23.6692 51.4185 23.6692C50.6695 23.6692 50.2324 23.0355 50.2324 22.3067C50.2324 21.6096 50.6695 21.0076 51.3876 21.0076C51.7621 21.0076 52.043 21.1978 52.2305 21.5146V21.1027H52.6989V23.5742H52.7298ZM52.2618 22.3067C52.2618 21.8315 51.9808 21.4196 51.4498 21.4196C50.9505 21.4196 50.6695 21.8632 50.6695 22.3067C50.6695 22.782 50.9505 23.2257 51.4498 23.2257C51.9808 23.2257 52.2618 22.8137 52.2618 22.3067Z" fill="#4D403E"/>
<path d="M54.6652 21.4829C54.8835 21.1977 55.1645 20.9759 55.5394 20.9759C56.257 20.9759 56.6941 21.6096 56.6941 22.275C56.6941 23.0038 56.257 23.6375 55.5081 23.6375C55.1645 23.6375 54.8522 23.4474 54.6652 23.1622V25H54.1968V21.071H54.6652V21.4829ZM56.2262 22.3067C56.2262 21.8314 55.9452 21.4195 55.4141 21.4195C54.9148 21.4195 54.6339 21.8631 54.6339 22.3067C54.6339 22.782 54.9148 23.2256 55.4141 23.2256C55.9452 23.2256 56.2262 22.8137 56.2262 22.3067Z" fill="#4D403E"/>
<path d="M58.5363 18.9164V21.3878C58.6925 21.1344 58.9734 20.9759 59.2857 20.9759C59.9725 20.9759 60.1599 21.4512 60.1599 22.0532V23.5425H59.6915V22.1166C59.6915 21.673 59.6293 21.3878 59.1609 21.3878C58.5363 21.3878 58.5363 21.9265 58.5363 22.4018V23.5425H58.0684V18.9164H58.5363Z" fill="#4D403E"/>
<path d="M61.2837 21.071H61.8456L62.6885 22.6553L63.4692 21.071H63.9998L62.0018 25H61.4398L62.4075 23.1306L61.2837 21.071Z" fill="#4D403E"/>
</svg>
