<svg width="16" height="20" viewBox="0 0 16 20" fill="none" xmlns="http://www.w3.org/2000/svg">
<path fill-rule="evenodd" clip-rule="evenodd" d="M8.52125 20H7.49L6.545 18.8936C5.27187 17.4027 3.79625 15.4945 2.62906 13.5155C1.49656 11.5955 0.5 9.35727 0.5 7.27273C0.5 3.08636 3.68281 0 8 0C12.3172 0 15.5 3.08636 15.5 7.27273C15.5 9.36818 14.4725 11.6073 13.3316 13.5155C12.1541 15.4845 10.6784 17.3864 9.45312 18.87L8.52125 20ZM11.75 7.27273C11.75 8.23715 11.3549 9.16208 10.6517 9.84402C9.94839 10.526 8.99456 10.9091 8 10.9091C7.00544 10.9091 6.05161 10.526 5.34835 9.84402C4.64509 9.16208 4.25 8.23715 4.25 7.27273C4.25 6.3083 4.64509 5.38338 5.34835 4.70143C6.05161 4.01948 7.00544 3.63636 8 3.63636C8.99456 3.63636 9.94839 4.01948 10.6517 4.70143C11.3549 5.38338 11.75 6.3083 11.75 7.27273Z" fill="#4D403E"/>
<path d="M8 9.09095C7.50272 9.09095 7.02581 8.8994 6.67418 8.55842C6.32254 8.21744 6.125 7.75498 6.125 7.27277C6.125 6.79056 6.32254 6.3281 6.67418 5.98712C7.02581 5.64615 7.50272 5.45459 8 5.45459C8.49728 5.45459 8.97419 5.64615 9.32582 5.98712C9.67746 6.3281 9.875 6.79056 9.875 7.27277C9.875 7.75498 9.67746 8.21744 9.32582 8.55842C8.97419 8.8994 8.49728 9.09095 8 9.09095Z" fill="#4D403E"/>
</svg>
